<?xml version="1.0" encoding="UTF-8" standalone="no"?>
<svg
   xmlns:dc="http://purl.org/dc/elements/1.1/"
   xmlns:cc="http://creativecommons.org/ns#"
   xmlns:rdf="http://www.w3.org/1999/02/22-rdf-syntax-ns#"
   xmlns:svg="http://www.w3.org/2000/svg"
   xmlns="http://www.w3.org/2000/svg"
   xmlns:sodipodi="http://sodipodi.sourceforge.net/DTD/sodipodi-0.dtd"
   xmlns:inkscape="http://www.inkscape.org/namespaces/inkscape"
   id="_x33_0"
   enable-background="new 0 0 64 64"
   height="483.32312"
   viewBox="0 0 59.80434 60.41539"
   width="478.43472"
   version="1.1"
   sodipodi:docname="Logo.svg"
   inkscape:version="1.0 (4035a4f, 2020-05-01)">
  <metadata
     id="metadata63">
    <rdf:RDF>
      <cc:Work
         rdf:about="">
        <dc:format>image/svg+xml</dc:format>
        <dc:type
           rdf:resource="http://purl.org/dc/dcmitype/StillImage" />
        <dc:title />
      </cc:Work>
    </rdf:RDF>
  </metadata>
  <defs
     id="defs61" />
  <sodipodi:namedview
     inkscape:document-rotation="0"
     pagecolor="#ffffff"
     bordercolor="#666666"
     borderopacity="1"
     objecttolerance="10"
     gridtolerance="10"
     guidetolerance="10"
     inkscape:pageopacity="0"
     inkscape:pageshadow="2"
     inkscape:window-width="1592"
     inkscape:window-height="940"
     id="namedview59"
     showgrid="false"
     inkscape:zoom="0.84010048"
     inkscape:cx="235.03093"
     inkscape:cy="257.6073"
     inkscape:window-x="1207"
     inkscape:window-y="141"
     inkscape:window-maximized="0"
     inkscape:current-layer="g56" />
  <g
     transform="translate(-1,-2.5856108)"
     id="g56"
     style="display:inline">
    <path
       d="M 11.427,51.159 8.753,53.833 C 7.962,53.309 7.017,53 6,53 c -2.757,0 -5,2.243 -5,5 0,2.757 2.243,5 5,5 2.757,0 5,-2.243 5,-5 0,-1.017 -0.309,-1.962 -0.833,-2.753 l 2.674,-2.674 c -0.504,-0.438 -0.976,-0.91 -1.414,-1.414 z"
       id="path10" />
    <path
       d="m 38,53 c -1.017,0 -1.962,0.309 -2.753,0.833 l -2.674,-2.674 c -0.437,0.505 -0.91,0.977 -1.414,1.414 l 2.674,2.674 C 33.309,56.038 33,56.983 33,58 c 0,2.757 2.243,5 5,5 2.757,0 5,-2.243 5,-5 0,-2.757 -2.243,-5 -5,-5 z"
       id="path12" />
    <path
       d="m 6,31 c 1.017,0 1.962,-0.309 2.753,-0.833 l 2.674,2.674 c 0.437,-0.505 0.91,-0.977 1.414,-1.414 L 10.167,28.753 C 10.691,27.962 11,27.017 11,26 11,23.243 8.757,21 6,21 c -2.757,0 -5,2.243 -5,5 0,2.757 2.243,5 5,5 z"
       id="path14" />
    <path
       d="M 23,57.184 V 55.95 C 22.668,55.973 22.338,56 22,56 21.662,56 21.332,55.973 21,55.95 v 1.235 c -1.161,0.414 -2,1.514 -2,2.816 0,1.654 1.346,3 3,3 1.654,0 3,-1.346 3,-3 0,-1.303 -0.839,-2.403 -2,-2.817 z"
       id="path16" />
    <path
       d="m 4,45 c 1.302,0 2.402,-0.839 2.816,-2 H 8.05 C 8.027,42.668 8,42.338 8,42 8,41.662 8.027,41.332 8.05,41 H 6.816 C 6.402,39.839 5.302,39 4,39 c -1.654,0 -3,1.346 -3,3 0,1.654 1.346,3 3,3 z"
       id="path18" />
    <path
       d="m 18.836,28.372 c 0.645,-0.149 1.304,-0.256 1.98,-0.313 l -1.738,-7.818 5.805,-7.463 C 25.229,12.919 25.605,13 26,13 c 0.462,0 0.894,-0.113 1.285,-0.301 l 3.281,3.281 c 0.345,-0.585 0.83,-1.069 1.414,-1.414 L 28.699,11.285 C 28.887,10.894 29,10.462 29,10 29,8.346 27.654,7 26,7 c -1.654,0 -3,1.346 -3,3 0,0.526 0.148,1.014 0.387,1.445 l -6.465,8.313 z"
       id="path20" />
    <path
       d="m 54,35 c -0.462,0 -0.894,0.113 -1.285,0.301 L 49.434,32.02 c -0.345,0.585 -0.83,1.069 -1.414,1.414 l 3.281,3.281 C 51.113,37.106 51,37.538 51,38 c 0,0.395 0.081,0.771 0.221,1.117 l -7.463,5.805 -7.818,-1.738 c -0.057,0.675 -0.164,1.335 -0.313,1.98 l 8.615,1.914 8.313,-6.465 C 52.986,40.852 53.474,41 54,41 c 1.654,0 3,-1.346 3,-3 0,-1.654 -1.346,-3 -3,-3 z"
       id="path22" />
    <path
       d="m 19,44 c 0,-2.757 -2.243,-5 -5,-5 -1.549,0 -3.002,0.726 -3.947,1.945 C 10.023,41.293 10,41.644 10,42 c 0,2.42 0.726,4.671 1.963,6.558 C 12.605,48.846 13.287,49 14,49 c 2.757,0 5,-2.243 5,-5 z m -5,-1 c -0.552,0 -1,-0.448 -1,-1 0,-0.552 0.448,-1 1,-1 0.552,0 1,0.448 1,1 0,0.552 -0.448,1 -1,1 z"
       id="path26"
       style="display:inline" />
    <path
       d="M 17.185,31.016 C 17.074,31.333 17,31.659 17,32 c 0,1.654 1.346,3 3,3 1.654,0 3,-1.346 3,-3 0,-0.742 -0.289,-1.445 -0.78,-1.992 C 22.147,30.007 22.074,30 22,30 c -1.713,0 -3.34,0.367 -4.815,1.016 z M 20,33 c -0.552,0 -1,-0.448 -1,-1 0,-0.552 0.448,-1 1,-1 0.552,0 1,0.448 1,1 0,0.552 -0.448,1 -1,1 z"
       id="path38"
       style="display:inline" />
    <path
       d="m 24,49 c 0,-2.757 2.243,-5 5,-5 1.749,0 3.293,0.925 4.188,2.305 C 33.705,44.966 34,43.518 34,42 34,39.984 33.497,38.021 32.543,36.27 l -1.71,0.977 -1.333,-1.333 -3.793,3.793 -1.414,-1.414 3.793,-3.793 -1.333,-1.333 0.977,-1.71 C 26.774,30.936 25.755,30.552 24.699,30.309 24.893,30.847 25,31.417 25,32 c 0,2.757 -2.243,5 -5,5 -2.67,0 -4.839,-2.109 -4.974,-4.746 -1.915,1.374 -3.404,3.294 -4.248,5.534 C 11.76,37.278 12.863,37 14,37 c 3.859,0 7,3.141 7,7 0,3.831 -3.095,6.95 -6.916,6.996 C 16.199,52.859 18.966,54 22,54 23.518,54 24.966,53.705 26.305,53.188 24.925,52.293 24,50.749 24,49 Z"
       id="path52"
       style="display:inline" />
    <path
       d="m 29,46 c -1.654,0 -3,1.346 -3,3 0,1.533 1.179,2.801 2.674,2.967 1.3,-0.873 2.42,-1.993 3.293,-3.293 C 31.801,47.179 30.533,46 29,46 Z m 0,4 c -0.552,0 -1,-0.448 -1,-1 0,-0.552 0.448,-1 1,-1 0.552,0 1,0.448 1,1 0,0.552 -0.448,1 -1,1 z"
       id="path54"
       style="display:inline" />
  </g>
  <g
     id="g69"
     transform="matrix(0.05645053,0.05700118,-0.05645053,0.05700118,42.90192,-12.117309)"
     style="display:inline"
     inkscape:label="g69">
    <path
       id="path65"
       d="m 226,250 h -74.521 c 5.053,53.224 49.997,95 104.521,95 54.524,0 99.469,-41.776 104.522,-95 H 286 v -30 h 75 v -30 h -75 v -30 h 75 v -30 h -75 v -30 h 74.878 C 358.259,44.416 312.221,0 256,0 199.779,0 153.741,44.416 151.122,100 H 226 v 30 h -75 v 30 h 75 v 30 h -75 v 30 h 75 z"
       style="display:inline" />
    <path
       id="path67"
       d="m 391,190 v 50 c 0,74.44 -60.56,135 -135,135 -74.44,0 -135,-60.56 -135,-135 V 190 H 91 v 50 c 0,85.925 66.023,156.707 150,164.311 V 482 c 30,0 0,0 30,0 V 404.311 C 354.978,396.707 421,325.925 421,240 v -50 z"
       inkscape:label="path67"
       style="display:inline"
       sodipodi:nodetypes="csssccsccccscc" />
  </g>
</svg>
